<?xml version="1.0" standalone="no"?>
<!DOCTYPE svg PUBLIC "-//W3C//DTD SVG 20010904//EN"
 "http://www.w3.org/TR/2001/REC-SVG-20010904/DTD/svg10.dtd">
<svg version="1.0" xmlns="http://www.w3.org/2000/svg"
 width="430.000000pt" height="430.000000pt" viewBox="0 0 430.000000 430.000000"
 preserveAspectRatio="xMidYMid meet">
<metadata>
Created by potrace 1.14, written by Peter Selinger 2001-2017
</metadata>
<g transform="translate(0.000000,430.000000) scale(0.100000,-0.100000)"
fill="#000000" stroke="none">
<path d="M660 2650 l0 -420 25 0 25 0 0 395 0 395 95 0 95 0 2 -262 3 -263 23
-3 22 -3 0 290 0 291 -145 0 -145 0 0 -420z"/>
<path d="M2395 3050 c-61 -40 -65 -60 -65 -323 l0 -238 23 3 c22 3 22 4 27
241 l5 239 28 24 28 24 523 0 524 0 53 -28 c60 -31 113 -93 129 -150 5 -20 10
-108 10 -195 l0 -158 23 3 c22 3 22 4 22 183 0 169 -1 183 -23 223 -33 63 -84
114 -139 142 l-48 25 -545 3 c-530 2 -546 2 -575 -18z"/>
<path d="M2574 2817 c-2 -7 -3 -82 -2 -167 3 -152 3 -155 25 -158 22 -3 22 -2
25 140 l3 143 405 0 405 0 0 -115 c0 -63 -4 -128 -9 -143 -8 -27 -7 -28 20
-25 37 4 42 23 43 171 1 113 0 119 -24 142 l-24 25 -431 0 c-343 0 -432 -3
-436 -13z"/>
<path d="M422 2268 l3 -153 143 -3 143 -3 -3 28 -3 28 -117 3 -118 3 0 124 0
125 -25 0 -26 0 3 -152z"/>
<path d="M790 2401 c-5 -11 -10 -81 -10 -155 l0 -136 30 0 30 0 0 130 0 130
100 0 100 0 0 -39 c0 -21 -6 -43 -13 -49 -7 -6 -46 -12 -87 -14 -73 -3 -75 -4
-75 -28 0 -19 6 -26 24 -28 14 -2 50 -26 81 -53 48 -41 63 -49 96 -49 l39 1
-54 48 -53 48 38 19 c50 24 66 56 61 118 -6 71 -17 76 -169 76 -116 0 -128 -2
-138 -19z"/>
<path d="M1234 2388 c-40 -37 -58 -98 -48 -156 15 -88 65 -122 177 -122 93 0
138 17 167 65 25 40 27 132 5 176 -28 53 -68 69 -173 69 -90 0 -93 -1 -128
-32z m230 -39 c23 -18 26 -27 26 -81 0 -89 -11 -98 -121 -98 -110 0 -129 14
-129 95 0 81 29 104 131 105 52 0 72 -4 93 -21z"/>
<path d="M1359 2293 c-46 -31 -87 -61 -91 -66 -9 -15 2 -37 18 -37 26 0 184
112 184 130 0 35 -29 28 -111 -27z"/>
<path d="M1852 2397 c-20 -21 -22 -34 -22 -155 l0 -132 25 0 25 0 0 118 c0 78
4 122 12 130 15 15 142 16 169 2 14 -8 19 -21 19 -55 0 -55 -15 -65 -104 -65
-64 0 -66 -1 -66 -25 0 -24 2 -25 75 -25 86 0 131 17 145 56 23 59 3 141 -39
164 -11 5 -64 10 -119 10 -90 0 -100 -2 -120 -23z"/>
<path d="M2300 2402 c-57 -30 -80 -88 -80 -199 l0 -93 30 0 c28 0 30 2 30 40
l0 40 100 0 100 0 0 -40 c0 -38 2 -40 30 -40 l30 0 0 136 c0 74 -5 144 -10
155 -9 17 -22 19 -103 19 -70 0 -101 -4 -127 -18z m180 -97 l0 -65 -100 0
-100 0 0 31 c0 67 45 98 143 99 l57 0 0 -65z"/>
<path d="M2647 2413 c-4 -3 -7 -73 -7 -155 l0 -148 30 0 30 0 0 130 0 131 98
-3 c93 -3 97 -4 100 -26 2 -13 -4 -34 -12 -48 -15 -22 -23 -24 -91 -24 l-75 0
0 -30 c0 -24 4 -30 22 -30 12 0 48 -23 80 -51 52 -45 62 -50 98 -47 l40 3 -55
45 -55 45 29 12 c46 19 71 59 71 112 0 26 -7 56 -16 69 -14 21 -22 22 -148 22
-73 0 -136 -3 -139 -7z"/>
<path d="M3068 2400 c-32 -24 -40 -65 -23 -107 19 -44 42 -53 137 -53 94 0
111 -7 106 -41 -3 -24 -5 -24 -125 -27 l-123 -3 0 -30 0 -31 129 4 c144 3 165
12 177 73 13 73 -33 106 -159 114 -78 5 -92 9 -95 24 -8 38 15 47 124 47 l104
0 0 25 0 25 -114 0 c-98 0 -117 -3 -138 -20z"/>
<path d="M3436 2404 c-8 -20 -8 -212 0 -242 11 -40 52 -52 174 -52 l111 0 -3
28 -3 27 -112 3 -113 3 0 99 0 100 115 0 115 0 0 25 0 25 -139 0 c-117 0 -140
-2 -145 -16z"/>
<path d="M3817 2413 c-4 -3 -7 -73 -7 -155 l0 -148 30 0 30 0 0 130 0 131 98
-3 97 -3 -1 -39 c-1 -21 -8 -42 -15 -47 -8 -5 -47 -9 -86 -9 l-73 0 0 -30 c0
-24 4 -30 22 -30 12 0 48 -23 80 -51 52 -45 62 -50 98 -47 l40 3 -55 45 -55
45 29 12 c46 19 71 59 71 112 0 26 -7 56 -16 69 -14 21 -22 22 -148 22 -73 0
-136 -3 -139 -7z"/>
<path d="M3517 2293 c-4 -3 -7 -17 -7 -30 0 -22 2 -23 90 -23 l90 0 0 30 0 30
-83 0 c-46 0 -87 -3 -90 -7z"/>
<path d="M660 1908 c0 -157 7 -180 66 -219 28 -18 58 -19 627 -19 l597 0 0
145 0 145 -500 0 -500 0 0 45 c0 41 -2 45 -25 45 -24 0 -25 -2 -25 -70 l0 -70
500 0 500 0 0 -95 0 -95 -568 0 c-557 0 -569 0 -590 20 -29 27 -32 43 -35 185
-2 116 -3 120 -24 123 -23 3 -23 3 -23 -140z"/>
<path d="M2330 1860 l0 -190 145 0 145 0 0 191 c0 170 -2 190 -16 185 -9 -3
-20 -6 -25 -6 -5 0 -9 -70 -9 -160 l0 -160 -95 0 -95 0 0 165 0 165 -25 0 -25
0 0 -190z"/>
<path d="M2951 2041 c2 -5 98 -91 213 -190 l210 -181 228 0 228 0 -43 38 c-23
21 -122 107 -219 191 -166 143 -179 152 -213 149 l-37 -3 186 -160 c102 -87
186 -160 186 -162 0 -2 -67 -3 -148 -3 l-149 0 -129 113 c-227 197 -237 204
-278 211 -24 5 -37 4 -35 -3z"/>
<path d="M1006 1444 c-21 -20 -22 -126 -2 -143 9 -7 41 -11 83 -9 l68 3 0 45
0 45 -52 3 c-43 2 -53 0 -53 -12 0 -12 11 -16 40 -16 33 0 40 -3 40 -20 0 -18
-7 -20 -56 -20 l-55 0 3 53 3 52 68 3 c51 2 67 6 67 17 0 22 -133 21 -154 -1z"/>
<path d="M2910 1445 c0 -10 10 -15 30 -15 l30 0 0 -70 c0 -56 3 -70 15 -70 12
0 15 14 15 70 l0 70 35 0 c24 0 35 5 35 15 0 12 -16 15 -80 15 -64 0 -80 -3
-80 -15z"/>
<path d="M2688 1407 l32 -33 -32 -32 c-29 -28 -30 -32 -12 -32 11 0 34 15 52
33 l32 33 -33 32 c-18 18 -41 32 -52 32 -16 0 -14 -5 13 -33z"/>
<path d="M1230 1400 c-25 -25 -29 -110 -6 -110 11 0 16 14 18 48 3 47 3 47 41
50 24 2 37 8 37 18 0 22 -66 18 -90 -6z"/>
<path d="M1390 1406 c0 -10 13 -16 38 -18 34 -3 37 -6 37 -33 0 -28 -3 -30
-39 -33 -28 -2 -37 0 -34 10 3 7 17 14 31 16 45 5 30 23 -15 20 -36 -3 -44 -7
-46 -26 -5 -34 15 -52 58 -52 63 0 70 6 70 61 0 38 -4 51 -19 59 -30 15 -81
13 -81 -4z"/>
<path d="M1560 1355 c0 -75 17 -88 22 -17 3 43 5 47 28 47 23 0 25 -4 28 -47
2 -34 7 -48 18 -48 10 0 14 13 14 51 0 43 3 50 18 47 13 -2 18 -15 20 -51 4
-65 22 -59 22 8 0 66 -8 72 -102 73 l-68 1 0 -64z"/>
<path d="M1800 1355 c0 -75 17 -88 22 -17 3 43 5 47 28 47 23 0 25 -4 28 -47
2 -34 7 -48 18 -48 10 0 14 13 14 51 0 43 3 50 18 47 13 -2 18 -15 20 -51 4
-65 22 -59 22 8 0 66 -8 72 -102 73 l-68 1 0 -64z"/>
<path d="M2060 1406 c0 -10 13 -16 38 -18 34 -3 37 -6 37 -33 0 -28 -3 -30
-39 -33 -28 -2 -37 0 -34 10 3 7 17 14 31 16 45 5 30 23 -15 20 -36 -3 -44 -7
-46 -26 -5 -34 15 -52 58 -52 63 0 70 6 70 61 0 38 -4 51 -19 59 -30 15 -81
13 -81 -4z"/>
<path d="M2238 1409 c-24 -13 -26 -119 -4 -119 11 0 16 14 18 48 3 47 3 47 41
50 24 2 37 8 37 18 0 17 -65 19 -92 3z"/>
<path d="M3120 1400 c-25 -25 -29 -110 -6 -110 11 0 16 14 18 48 3 47 3 47 41
50 24 2 37 8 37 18 0 22 -66 18 -90 -6z"/>
<path d="M3276 1404 c-18 -18 -21 -66 -6 -95 14 -24 90 -28 90 -4 0 11 -11 15
-36 15 -34 0 -35 1 -32 33 3 29 6 32 41 35 28 2 37 0 37 -12 0 -12 -10 -16
-35 -16 -24 0 -35 -5 -35 -15 0 -10 10 -15 31 -15 43 0 69 17 69 45 0 14 -8
29 -19 35 -29 15 -87 12 -105 -6z"/>
<path d="M3466 1404 c-18 -18 -21 -66 -6 -95 14 -24 90 -28 90 -4 0 11 -11 15
-36 15 -34 0 -35 1 -32 33 3 29 6 32 41 35 28 2 37 0 37 -12 0 -12 -10 -16
-35 -16 -24 0 -35 -5 -35 -15 0 -10 10 -15 31 -15 43 0 69 17 69 45 0 14 -8
29 -19 35 -29 15 -87 12 -105 -6z"/>
<path d="M2480 1375 c0 -12 13 -15 55 -15 42 0 55 3 55 15 0 12 -13 15 -55 15
-42 0 -55 -3 -55 -15z"/>
</g>
</svg>
